<!DOCTYPE svg PUBLIC "-//W3C//DTD SVG 1.1//EN" "http://www.w3.org/Graphics/SVG/1.1/DTD/svg11.dtd">
<!-- Uploaded to: SVG Repo, www.svgrepo.com, Transformed by: SVG Repo Mixer Tools -->
<svg fill="#db1202" version="1.1" id="Capa_1" xmlns="http://www.w3.org/2000/svg" xmlns:xlink="http://www.w3.org/1999/xlink" width="800px" height="800px" viewBox="0 0 934.247 934.248" xml:space="preserve" transform="rotate(90)">
<g id="SVGRepo_bgCarrier" stroke-width="0"/>
<g id="SVGRepo_tracerCarrier" stroke-linecap="round" stroke-linejoin="round"/>
<g id="SVGRepo_iconCarrier"> <g> <g> <path d="M109.095,751.761h343.029V581.908c-56.767-7.379-100.755-56.039-100.755-114.783c0-58.746,43.988-107.407,100.755-114.785 V182.486H109.095C48.844,182.486,0,231.329,0,291.581v32.865h127.678c8.284,0,15,6.716,15,15v28.238 c34.855,20.895,56.368,58.675,56.368,99.441c0,41.176-21.398,78.568-56.368,99.455v28.223c0,8.283-6.716,15-15,15H0v32.865 C0,702.917,48.844,751.761,109.095,751.761z"/> <path d="M553.125,467.125c0-42.304-30.71-77.544-71.001-84.666v169.33C522.415,544.669,553.125,509.427,553.125,467.125z"/> <rect x="821.569" y="354.446" width="112.555" height="225.356"/> <path d="M381.123,467.125c0,42.303,30.71,77.545,71.001,84.664v-169.33C411.833,389.579,381.123,424.82,381.123,467.125z"/> <path d="M791.569,528.146V406.189c-16.008,15.924-25.378,37.779-25.378,60.935C766.191,490.531,775.523,512.291,791.569,528.146z"/> <polygon points="0.124,354.446 0.124,383.555 0.124,550.693 0.124,579.802 112.679,579.802 112.679,354.446 "/> <path d="M142.679,405.227v123.867c16.646-15.932,26.368-38.088,26.368-61.969C169.047,443.497,159.288,421.225,142.679,405.227z"/> <path d="M482.124,182.486V352.34c56.767,7.378,100.755,56.039,100.755,114.785c0,58.744-43.988,107.404-100.755,114.783v169.854 h343.029c60.251,0,109.094-48.842,109.094-109.094v-32.865H806.569c-8.284,0-15-6.715-15-15v-28.836 c-34.378-20.998-55.378-58.059-55.378-98.842c0-40.375,21.106-77.823,55.378-98.835v-28.842c0-8.284,6.716-15,15-15h127.678 v-32.865c0-60.251-48.843-109.095-109.094-109.095L482.124,182.486L482.124,182.486z"/> </g> </g> </g>
</svg>